<svg xmlns="http://www.w3.org/2000/svg" width="383.692" height="368.077" viewBox="0 0 383.692 368.077">
  <g id="Group_64" data-name="Group 64" transform="translate(-1394 -171.657)">
    <g id="Path_22" data-name="Path 22" transform="translate(1394 256.602)" fill="#fff">
      <path d="M 47.75720596313477 20.66138076782227 L 3.49999475479126 -3.156411647796631 L 3.49999475479126 -55.4637451171875 L 47.75713729858398 -80.90731048583984 L 91.93816375732422 -55.46541976928711 L 91.93816375732422 -3.154769659042358 L 47.75720596313477 20.66138076782227 Z" stroke="none"/>
      <path d="M 47.75568389892578 -76.86930084228516 L 6.999992370605469 -53.43872833251953 L 6.999992370605469 -5.247493743896484 L 47.75584030151367 16.68598556518555 L 88.43816375732422 -5.24420166015625 L 88.43816375732422 -53.44206619262695 L 47.75568389892578 -76.86930084228516 M 47.75857925415039 -84.94532775878906 L 95.43816375732422 -57.48876190185547 L 95.43816375732422 -1.065345764160156 L 47.75857925415039 24.63677597045898 L -7.62939453125e-06 -1.065345764160156 L -7.62939453125e-06 -57.48876190185547 L 47.75857925415039 -84.94532775878906 Z" stroke="none" fill="#4b128b"/>
    </g>
    <g id="Path_25" data-name="Path 25" transform="translate(1562.051 389.643)" fill="#fff">
      <path d="M 47.75720596313477 20.66138076782227 L 3.49999475479126 -3.156411647796631 L 3.49999475479126 -55.4637451171875 L 47.75713729858398 -80.90731048583984 L 91.93816375732422 -55.46541976928711 L 91.93816375732422 -3.154769659042358 L 47.75720596313477 20.66138076782227 Z" stroke="none"/>
      <path d="M 47.75568389892578 -76.86930084228516 L 6.999992370605469 -53.43872833251953 L 6.999992370605469 -5.247493743896484 L 47.75584030151367 16.68598556518555 L 88.43816375732422 -5.24420166015625 L 88.43816375732422 -53.44206619262695 L 47.75568389892578 -76.86930084228516 M 47.75857925415039 -84.94532775878906 L 95.43816375732422 -57.48876190185547 L 95.43816375732422 -1.065345764160156 L 47.75857925415039 24.63677597045898 L -7.62939453125e-06 -1.065345764160156 L -7.62939453125e-06 -57.48876190185547 L 47.75857925415039 -84.94532775878906 Z" stroke="none" fill="#4b128b"/>
    </g>
    <g id="Path_23" data-name="Path 23" transform="translate(1514.203 272.357)" fill="#4b128b">
      <path d="M 47.75720596313477 20.66138076782227 L 3.49999475479126 -3.156411647796631 L 3.49999475479126 -55.4637451171875 L 47.75713729858398 -80.90731048583984 L 91.93816375732422 -55.46541976928711 L 91.93816375732422 -3.154769659042358 L 47.75720596313477 20.66138076782227 Z" stroke="none"/>
      <path d="M 47.75568389892578 -76.86930084228516 L 6.999992370605469 -53.43872833251953 L 6.999992370605469 -5.247493743896484 L 47.75584030151367 16.68598556518555 L 88.43816375732422 -5.24420166015625 L 88.43816375732422 -53.44206619262695 L 47.75568389892578 -76.86930084228516 M 47.75857925415039 -84.94532775878906 L 95.43816375732422 -57.48876190185547 L 95.43816375732422 -1.065345764160156 L 47.75857925415039 24.63677597045898 L -7.62939453125e-06 -1.065345764160156 L -7.62939453125e-06 -57.48876190185547 L 47.75857925415039 -84.94532775878906 Z" stroke="none" fill="#4b128b"/>
    </g>
    <g id="Path_26" data-name="Path 26" transform="translate(1682.254 405.398)" fill="#fff">
      <path d="M 47.75720596313477 20.66138076782227 L 3.49999475479126 -3.156411647796631 L 3.49999475479126 -55.4637451171875 L 47.75713729858398 -80.90731048583984 L 91.93816375732422 -55.46541976928711 L 91.93816375732422 -3.154769659042358 L 47.75720596313477 20.66138076782227 Z" stroke="none"/>
      <path d="M 47.75568389892578 -76.86930084228516 L 6.999992370605469 -53.43872833251953 L 6.999992370605469 -5.247493743896484 L 47.75584030151367 16.68598556518555 L 88.43816375732422 -5.24420166015625 L 88.43816375732422 -53.44206619262695 L 47.75568389892578 -76.86930084228516 M 47.75857925415039 -84.94532775878906 L 95.43816375732422 -57.48876190185547 L 95.43816375732422 -1.065345764160156 L 47.75857925415039 24.63677597045898 L -7.62939453125e-06 -1.065345764160156 L -7.62939453125e-06 -57.48876190185547 L 47.75857925415039 -84.94532775878906 Z" stroke="none" fill="#4b128b"/>
    </g>
    <g id="Path_24" data-name="Path 24" transform="translate(1441.848 382.057)" fill="#4b128b">
      <path d="M 47.75720596313477 20.66138076782227 L 3.49999475479126 -3.156411647796631 L 3.49999475479126 -55.4637451171875 L 47.75713729858398 -80.90731048583984 L 91.93816375732422 -55.46541976928711 L 91.93816375732422 -3.154769659042358 L 47.75720596313477 20.66138076782227 Z" stroke="none"/>
      <path d="M 47.75568389892578 -76.86930084228516 L 6.999992370605469 -53.43872833251953 L 6.999992370605469 -5.247493743896484 L 47.75584030151367 16.68598556518555 L 88.43816375732422 -5.24420166015625 L 88.43816375732422 -53.44206619262695 L 47.75568389892578 -76.86930084228516 M 47.75857925415039 -84.94532775878906 L 95.43816375732422 -57.48876190185547 L 95.43816375732422 -1.065345764160156 L 47.75857925415039 24.63677597045898 L -7.62939453125e-06 -1.065345764160156 L -7.62939453125e-06 -57.48876190185547 L 47.75857925415039 -84.94532775878906 Z" stroke="none" fill="#4b128b"/>
    </g>
    <g id="Path_27" data-name="Path 27" transform="translate(1609.899 515.098)" fill="#4b128b">
      <path d="M 47.75720596313477 20.66138076782227 L 3.49999475479126 -3.156411647796631 L 3.49999475479126 -55.4637451171875 L 47.75713729858398 -80.90731048583984 L 91.93816375732422 -55.46541976928711 L 91.93816375732422 -3.154769659042358 L 47.75720596313477 20.66138076782227 Z" stroke="none"/>
      <path d="M 47.75568389892578 -76.86930084228516 L 6.999992370605469 -53.43872833251953 L 6.999992370605469 -5.247493743896484 L 47.75584030151367 16.68598556518555 L 88.43816375732422 -5.24420166015625 L 88.43816375732422 -53.44206619262695 L 47.75568389892578 -76.86930084228516 M 47.75857925415039 -84.94532775878906 L 95.43816375732422 -57.48876190185547 L 95.43816375732422 -1.065345764160156 L 47.75857925415039 24.63677597045898 L -7.62939453125e-06 -1.065345764160156 L -7.62939453125e-06 -57.48876190185547 L 47.75857925415039 -84.94532775878906 Z" stroke="none" fill="#4b128b"/>
    </g>
    <text id="BTC" transform="translate(1416 235)" fill="#1b14ea" font-size="25" font-family="Montserrat-Light, Montserrat" font-weight="300"><tspan x="0" y="0">BTC</tspan></text>
    <text id="ETC" transform="translate(1584 368)" fill="#1b14ea" font-size="25" font-family="Montserrat-Light, Montserrat" font-weight="300"><tspan x="0" y="0">ETC</tspan></text>
    <text id="ETH" transform="translate(1536 251)" fill="#fff" font-size="25" font-family="Montserrat-Light, Montserrat" font-weight="300"><tspan x="0" y="0">ETH</tspan></text>
    <text id="BCH" transform="translate(1704 384)" fill="#1b14ea" font-size="25" font-family="Montserrat-Light, Montserrat" font-weight="300"><tspan x="0" y="0">BCH</tspan></text>
    <text id="XRP" transform="translate(1464 360)" fill="#fff" font-size="25" font-family="Montserrat-Light, Montserrat" font-weight="300"><tspan x="0" y="0">XRP</tspan></text>
    <text id="EOS" transform="translate(1632 493)" fill="#fff" font-size="25" font-family="Montserrat-Light, Montserrat" font-weight="300"><tspan x="0" y="0">EOS</tspan></text>
  </g>
</svg>
