<svg xmlns="http://www.w3.org/2000/svg" xmlns:xlink="http://www.w3.org/1999/xlink" width="113.438" height="127.582" viewBox="0 0 113.438 127.582"><defs><filter id="a" x="0" y="0" width="113.438" height="127.582" filterUnits="userSpaceOnUse"><feOffset dx="7" dy="3" input="SourceAlpha"/><feGaussianBlur stdDeviation="3" result="b"/><feFlood flood-color="#0d0b0b" flood-opacity="0.161"/><feComposite operator="in" in2="b"/><feComposite in="SourceGraphic"/></filter><filter id="c" x="18.464" y="28.943" width="62.974" height="69.64" filterUnits="userSpaceOnUse"><feOffset dy="3" input="SourceAlpha"/><feGaussianBlur stdDeviation="3" result="d"/><feFlood flood-opacity="0.161"/><feComposite operator="in" in2="d"/><feComposite in="SourceGraphic"/></filter><filter id="e" x="34.203" y="46.907" width="31.438" height="33.43" filterUnits="userSpaceOnUse"><feOffset dy="3" input="SourceAlpha"/><feGaussianBlur stdDeviation="3" result="f"/><feFlood flood-opacity="0.161"/><feComposite operator="in" in2="f"/><feComposite in="SourceGraphic"/></filter><filter id="g" x="4.5" y="11.843" width="48" height="67" filterUnits="userSpaceOnUse"><feOffset dy="3" input="SourceAlpha"/><feGaussianBlur stdDeviation="3" result="h"/><feFlood flood-opacity="0.161"/><feComposite operator="in" in2="h"/><feComposite in="SourceGraphic"/></filter></defs><g transform="translate(-983 -111.657)"><g transform="matrix(1, 0, 0, 1, 983, 111.66)" filter="url(#a)"><g transform="translate(2 90.95)" fill="#4b128b"><path d="M 47.75720596313477 20.66138076782227 L 3.49999475479126 -3.156411647796631 L 3.49999475479126 -55.4637451171875 L 47.75713729858398 -80.90731048583984 L 91.93816375732422 -55.46541976928711 L 91.93816375732422 -3.154769659042358 L 47.75720596313477 20.66138076782227 Z" stroke="none"/><path d="M 47.75568389892578 -76.86930084228516 L 6.999992370605469 -53.43872833251953 L 6.999992370605469 -5.247493743896484 L 47.75584030151367 16.68598556518555 L 88.43816375732422 -5.24420166015625 L 88.43816375732422 -53.44206619262695 L 47.75568389892578 -76.86930084228516 M 47.75857925415039 -84.94532775878906 L 95.43816375732422 -57.48876190185547 L 95.43816375732422 -1.065345764160156 L 47.75857925415039 24.63677597045898 L -7.62939453125e-06 -1.065345764160156 L -7.62939453125e-06 -57.48876190185547 L 47.75857925415039 -84.94532775878906 Z" stroke="none" fill="#f3e9ff"/></g></g><g transform="matrix(1, 0, 0, 1, 983, 111.66)" filter="url(#c)"><g transform="translate(27.46 119.89)" fill="#fff"><path d="M 22.50443077087402 -37.2811279296875 L 3.500002145767212 -47.50869369506836 L 3.500002145767212 -69.98164367675781 L 22.50435829162598 -80.90730285644531 L 41.47438049316406 -69.98331451416016 L 41.47438049316406 -47.50704956054688 L 22.50443077087402 -37.2811279296875 Z" stroke="none"/><path d="M 22.50291633605957 -76.86930847167969 L 6.999992370605469 -67.95662689208984 L 6.999992370605469 -49.59976196289063 L 22.5030574798584 -41.25652313232422 L 37.9743766784668 -49.59648132324219 L 37.9743766784668 -67.95997619628906 L 22.50291633605957 -76.86930847167969 M 22.50580596923828 -84.94532012939453 L 44.9743766784668 -72.00666046142578 L 44.9743766784668 -45.41761779785156 L 22.50580596923828 -33.30573272705078 L -7.62939453125e-06 -45.41761779785156 L -7.62939453125e-06 -72.00666046142578 L 22.50580596923828 -84.94532012939453 Z" stroke="none" fill="#4b128b"/></g></g><g transform="matrix(1, 0, 0, 1, 983, 111.66)" filter="url(#e)"><g transform="translate(43.2 137.85)" fill="#4b128b"><path d="M 6.723272323608398 -73.49101257324219 L 3.499998092651367 -75.22567749023438 L 3.499998092651367 -79.05427551269531 L 6.72319507598877 -80.90730285644531 L 9.93815803527832 -79.05594635009766 L 9.93815803527832 -75.22402954101563 L 6.723272323608398 -73.49101257324219 Z" stroke="none"/><path d="M 6.724637985229492 -84.9453125 L 13.43815803527832 -81.07929229736328 L 13.43815803527832 -73.13459777832031 L 6.724637985229492 -69.51561737060547 L -1.9073486328125e-06 -73.13459777832031 L -1.9073486328125e-06 -81.07929229736328 L 6.724637985229492 -84.9453125 Z" stroke="none" fill="#4b128b"/></g></g><g transform="matrix(1, 0, 0, 1, 983, 111.66)" filter="url(#g)"><text transform="translate(16.5 49.84)" fill="#fff" stroke="rgba(112,112,112,0.25)" stroke-width="3" font-size="41" font-family="ColonnaMT, Colonna MT"><tspan x="0" y="0">C</tspan></text></g><text transform="translate(1049 199)" fill="#fff" stroke="rgba(112,112,112,0.25)" stroke-width="3" font-size="39" font-family="ColonnaMT, Colonna MT"><tspan x="0" y="0">L</tspan></text></g></svg>